%TF.GenerationSoftware,KiCad,Pcbnew,8.0.5*%
%TF.CreationDate,2024-10-07T16:19:07-07:00*%
%TF.ProjectId,MyFirstKiCAD,4d794669-7273-4744-9b69-4341442e6b69,rev?*%
%TF.SameCoordinates,Original*%
%TF.FileFunction,Drillmap*%
%TF.FilePolarity,Positive*%
%FSLAX45Y45*%
G04 Gerber Fmt 4.5, Leading zero omitted, Abs format (unit mm)*
G04 Created by KiCad (PCBNEW 8.0.5) date 2024-10-07 16:19:07*
%MOMM*%
%LPD*%
G01*
G04 APERTURE LIST*
%ADD10C,0.200000*%
G04 APERTURE END LIST*
D10*
X11400000Y-7800000D02*
X13950000Y-7800000D01*
X13950000Y-11450000D01*
X11400000Y-11450000D01*
X11400000Y-7800000D01*
X11650777Y-11771484D02*
X11650777Y-11571484D01*
X11650777Y-11571484D02*
X11698396Y-11571484D01*
X11698396Y-11571484D02*
X11726967Y-11581008D01*
X11726967Y-11581008D02*
X11746015Y-11600055D01*
X11746015Y-11600055D02*
X11755539Y-11619103D01*
X11755539Y-11619103D02*
X11765062Y-11657198D01*
X11765062Y-11657198D02*
X11765062Y-11685769D01*
X11765062Y-11685769D02*
X11755539Y-11723865D01*
X11755539Y-11723865D02*
X11746015Y-11742912D01*
X11746015Y-11742912D02*
X11726967Y-11761960D01*
X11726967Y-11761960D02*
X11698396Y-11771484D01*
X11698396Y-11771484D02*
X11650777Y-11771484D01*
X11850777Y-11771484D02*
X11850777Y-11638150D01*
X11850777Y-11676246D02*
X11860301Y-11657198D01*
X11860301Y-11657198D02*
X11869824Y-11647674D01*
X11869824Y-11647674D02*
X11888872Y-11638150D01*
X11888872Y-11638150D02*
X11907920Y-11638150D01*
X11974586Y-11771484D02*
X11974586Y-11638150D01*
X11974586Y-11571484D02*
X11965062Y-11581008D01*
X11965062Y-11581008D02*
X11974586Y-11590531D01*
X11974586Y-11590531D02*
X11984110Y-11581008D01*
X11984110Y-11581008D02*
X11974586Y-11571484D01*
X11974586Y-11571484D02*
X11974586Y-11590531D01*
X12098396Y-11771484D02*
X12079348Y-11761960D01*
X12079348Y-11761960D02*
X12069824Y-11742912D01*
X12069824Y-11742912D02*
X12069824Y-11571484D01*
X12203158Y-11771484D02*
X12184110Y-11761960D01*
X12184110Y-11761960D02*
X12174586Y-11742912D01*
X12174586Y-11742912D02*
X12174586Y-11571484D01*
X12431729Y-11771484D02*
X12431729Y-11571484D01*
X12431729Y-11571484D02*
X12498396Y-11714341D01*
X12498396Y-11714341D02*
X12565062Y-11571484D01*
X12565062Y-11571484D02*
X12565062Y-11771484D01*
X12746015Y-11771484D02*
X12746015Y-11666722D01*
X12746015Y-11666722D02*
X12736491Y-11647674D01*
X12736491Y-11647674D02*
X12717443Y-11638150D01*
X12717443Y-11638150D02*
X12679348Y-11638150D01*
X12679348Y-11638150D02*
X12660301Y-11647674D01*
X12746015Y-11761960D02*
X12726967Y-11771484D01*
X12726967Y-11771484D02*
X12679348Y-11771484D01*
X12679348Y-11771484D02*
X12660301Y-11761960D01*
X12660301Y-11761960D02*
X12650777Y-11742912D01*
X12650777Y-11742912D02*
X12650777Y-11723865D01*
X12650777Y-11723865D02*
X12660301Y-11704817D01*
X12660301Y-11704817D02*
X12679348Y-11695293D01*
X12679348Y-11695293D02*
X12726967Y-11695293D01*
X12726967Y-11695293D02*
X12746015Y-11685769D01*
X12841253Y-11638150D02*
X12841253Y-11838150D01*
X12841253Y-11647674D02*
X12860301Y-11638150D01*
X12860301Y-11638150D02*
X12898396Y-11638150D01*
X12898396Y-11638150D02*
X12917443Y-11647674D01*
X12917443Y-11647674D02*
X12926967Y-11657198D01*
X12926967Y-11657198D02*
X12936491Y-11676246D01*
X12936491Y-11676246D02*
X12936491Y-11733388D01*
X12936491Y-11733388D02*
X12926967Y-11752436D01*
X12926967Y-11752436D02*
X12917443Y-11761960D01*
X12917443Y-11761960D02*
X12898396Y-11771484D01*
X12898396Y-11771484D02*
X12860301Y-11771484D01*
X12860301Y-11771484D02*
X12841253Y-11761960D01*
X13022205Y-11752436D02*
X13031729Y-11761960D01*
X13031729Y-11761960D02*
X13022205Y-11771484D01*
X13022205Y-11771484D02*
X13012682Y-11761960D01*
X13012682Y-11761960D02*
X13022205Y-11752436D01*
X13022205Y-11752436D02*
X13022205Y-11771484D01*
X13022205Y-11647674D02*
X13031729Y-11657198D01*
X13031729Y-11657198D02*
X13022205Y-11666722D01*
X13022205Y-11666722D02*
X13012682Y-11657198D01*
X13012682Y-11657198D02*
X13022205Y-11647674D01*
X13022205Y-11647674D02*
X13022205Y-11666722D01*
M02*
